<svg xmlns="http://www.w3.org/2000/svg" width="1600" height="1000" viewBox="0 0 1600 1000" fill="none"><defs><linearGradient id="bg" x1="0" y1="0" x2="1" y2="1"><stop offset="0%" stop-color="#071114"/><stop offset="50%" stop-color="#102228"/><stop offset="100%" stop-color="#1f3a35"/></linearGradient><radialGradient id="glow" cx="0" cy="0" r="1" gradientUnits="userSpaceOnUse" gradientTransform="translate(960 300) rotate(90) scale(330 420)"><stop stop-color="#f4c989" stop-opacity="0.92"/><stop offset="1" stop-color="#f4c989" stop-opacity="0"/></radialGradient></defs><rect width="1600" height="1000" fill="url(#bg)"/><circle cx="960" cy="300" r="300" fill="url(#glow)"/><path d="M0 770C168 692 292 672 430 692C585 714 655 826 803 828C958 830 1045 716 1210 698C1340 684 1468 720 1600 800V1000H0V770Z" fill="#0f1d21"/><path d="M0 815C154 744 286 722 425 744C583 770 647 872 805 870C965 868 1049 752 1206 732C1344 714 1460 750 1600 838V1000H0V815Z" fill="#19312D"/><path d="M728 738C728 691 766 654 813 654C860 654 898 691 898 738V848H728V738Z" fill="#0E1518"/><path d="M772 613C772 587 793 566 819 566C845 566 866 587 866 613C866 639 845 660 819 660C793 660 772 639 772 613Z" fill="#0E1518"/><circle cx="328" cy="770" r="34" fill="#0E1518"/><path d="M290 806C290 773 317 746 350 746C383 746 410 773 410 806V860H290V806Z" fill="#0E1518"/><circle cx="1282" cy="738" r="30" fill="#0E1518"/><path d="M1250 774C1250 744 1274 720 1304 720C1334 720 1358 744 1358 774V828H1250V774Z" fill="#0E1518"/></svg>