<svg xmlns="http://www.w3.org/2000/svg" width="1200" height="900" viewBox="0 0 1200 900" fill="none"><defs><linearGradient id="g" x1="0" y1="0" x2="1" y2="1"><stop offset="0" stop-color="#0E1D22"/><stop offset="1" stop-color="#26443F"/></linearGradient></defs><rect width="1200" height="900" fill="url(#g)"/><circle cx="870" cy="210" r="140" fill="#F0BE76" fill-opacity="0.32"/><rect x="220" y="504" width="760" height="212" rx="42" fill="#14262A"/><circle cx="412" cy="474" r="60" fill="#0C1114"/><path d="M338 560C338 507 381 464 434 464C487 464 530 507 530 560V716H338V560Z" fill="#0C1114"/><circle cx="786" cy="472" r="58" fill="#0C1114"/><path d="M714 556C714 505 755 464 806 464C857 464 898 505 898 556V716H714V556Z" fill="#0C1114"/><path d="M180 760C332 694 469 676 607 680C752 684 876 714 1040 792V900H180V760Z" fill="#183430"/></svg>